<mxfile host="Electron" agent="Mozilla/5.0 (X11; Linux x86_64) AppleWebKit/537.36 (KHTML, like Gecko) draw.io/26.2.2 Chrome/134.0.6998.178 Electron/35.1.2 Safari/537.36" version="26.2.2">
  <diagram name="Page-1" id="mzez5VFSWtmt7TEJpQF6">
    <mxGraphModel dx="836" dy="563" grid="1" gridSize="10" guides="1" tooltips="1" connect="1" arrows="1" fold="1" page="1" pageScale="1" pageWidth="827" pageHeight="1169" math="0" shadow="0">
      <root>
        <mxCell id="0" />
        <mxCell id="1" parent="0" />
        <mxCell id="rC-MBk3FVQZ4qPWOqdKQ-1" value="" style="edgeStyle=orthogonalEdgeStyle;shape=connector;rounded=0;orthogonalLoop=1;jettySize=auto;html=1;shadow=0;strokeColor=default;strokeWidth=1;align=center;verticalAlign=middle;fontFamily=Computer Modern;fontSize=12;fontColor=default;labelBackgroundColor=none;endArrow=classic;endFill=1;endSize=3;" parent="1" source="rC-MBk3FVQZ4qPWOqdKQ-2" target="rC-MBk3FVQZ4qPWOqdKQ-11" edge="1">
          <mxGeometry relative="1" as="geometry" />
        </mxCell>
        <mxCell id="rC-MBk3FVQZ4qPWOqdKQ-2" value="&lt;div&gt;Obtenir paquet&lt;/div&gt;" style="rounded=1;whiteSpace=wrap;html=1;fontSize=12;glass=0;strokeWidth=1;shadow=0;fontFamily=Computer Modern;strokeColor=light-dark(#000000,#EDEDED);fillColor=light-dark(#ccccff, #ededed);" parent="1" vertex="1">
          <mxGeometry x="200" y="80" width="120" height="40" as="geometry" />
        </mxCell>
        <mxCell id="rC-MBk3FVQZ4qPWOqdKQ-6" style="edgeStyle=orthogonalEdgeStyle;shape=connector;rounded=0;orthogonalLoop=1;jettySize=auto;html=1;entryX=0;entryY=0.5;entryDx=0;entryDy=0;shadow=0;strokeColor=default;strokeWidth=1;align=center;verticalAlign=middle;fontFamily=Computer Modern;fontSize=12;fontColor=default;labelBackgroundColor=none;endArrow=classic;endFill=1;endSize=3;" parent="1" source="rC-MBk3FVQZ4qPWOqdKQ-4" target="rC-MBk3FVQZ4qPWOqdKQ-2" edge="1">
          <mxGeometry relative="1" as="geometry" />
        </mxCell>
        <mxCell id="rC-MBk3FVQZ4qPWOqdKQ-7" style="edgeStyle=orthogonalEdgeStyle;shape=connector;rounded=0;orthogonalLoop=1;jettySize=auto;html=1;entryX=0;entryY=0.5;entryDx=0;entryDy=0;shadow=0;strokeColor=default;strokeWidth=1;align=center;verticalAlign=middle;fontFamily=Computer Modern;fontSize=12;fontColor=default;labelBackgroundColor=none;endArrow=classic;endFill=1;endSize=3;" parent="1" source="rC-MBk3FVQZ4qPWOqdKQ-5" target="rC-MBk3FVQZ4qPWOqdKQ-2" edge="1">
          <mxGeometry relative="1" as="geometry" />
        </mxCell>
        <mxCell id="rC-MBk3FVQZ4qPWOqdKQ-8" value="" style="edgeStyle=orthogonalEdgeStyle;shape=connector;rounded=0;orthogonalLoop=1;jettySize=auto;html=1;shadow=0;strokeColor=default;strokeWidth=1;align=center;verticalAlign=middle;fontFamily=Computer Modern;fontSize=12;fontColor=default;labelBackgroundColor=none;endArrow=classic;endFill=1;endSize=3;" parent="1" source="rC-MBk3FVQZ4qPWOqdKQ-11" target="rC-MBk3FVQZ4qPWOqdKQ-14" edge="1">
          <mxGeometry relative="1" as="geometry" />
        </mxCell>
        <mxCell id="rC-MBk3FVQZ4qPWOqdKQ-9" value="Sí" style="edgeLabel;html=1;align=center;verticalAlign=middle;resizable=0;points=[];fontFamily=Computer Modern;fontSize=12;fontColor=default;labelBackgroundColor=none;" parent="rC-MBk3FVQZ4qPWOqdKQ-8" vertex="1" connectable="0">
          <mxGeometry x="-0.2328" y="-1" relative="1" as="geometry">
            <mxPoint x="-10" y="-9" as="offset" />
          </mxGeometry>
        </mxCell>
        <mxCell id="rC-MBk3FVQZ4qPWOqdKQ-10" value="" style="edgeStyle=orthogonalEdgeStyle;shape=connector;rounded=0;orthogonalLoop=1;jettySize=auto;html=1;shadow=0;strokeColor=default;strokeWidth=1;align=center;verticalAlign=middle;fontFamily=Computer Modern;fontSize=12;fontColor=default;labelBackgroundColor=none;endArrow=classic;endFill=1;endSize=3;entryX=0.5;entryY=0;entryDx=0;entryDy=0;" parent="1" source="rC-MBk3FVQZ4qPWOqdKQ-11" edge="1" target="rC-MBk3FVQZ4qPWOqdKQ-19">
          <mxGeometry relative="1" as="geometry">
            <mxPoint x="445" y="530" as="targetPoint" />
          </mxGeometry>
        </mxCell>
        <mxCell id="rC-MBk3FVQZ4qPWOqdKQ-11" value="dst == self" style="rhombus;whiteSpace=wrap;html=1;shadow=0;fontFamily=Computer Modern;fontSize=12;align=center;strokeWidth=1;spacing=6;spacingTop=-4;fillColor=light-dark(#ffd9b3, #36210a);strokeColor=#000000;" parent="1" vertex="1">
          <mxGeometry x="359" y="60" width="109" height="80" as="geometry" />
        </mxCell>
        <mxCell id="rC-MBk3FVQZ4qPWOqdKQ-12" value="pkt(src, dst, ttl, longitud, data)" style="edgeLabel;html=1;align=left;verticalAlign=middle;resizable=0;points=[];fontFamily=Computer Modern;fontSize=10;fontColor=default;labelBackgroundColor=none;fontStyle=2" parent="1" vertex="1" connectable="0">
          <mxGeometry x="220" y="129.99793103448292" as="geometry" />
        </mxCell>
        <mxCell id="rC-MBk3FVQZ4qPWOqdKQ-14" value="Notificar recepció" style="rounded=1;whiteSpace=wrap;html=1;fontSize=12;glass=0;strokeWidth=1;shadow=0;fontFamily=Computer Modern;strokeColor=light-dark(#000000,#EDEDED);fillColor=light-dark(#ccccff, #ededed);" parent="1" vertex="1">
          <mxGeometry x="505" y="80" width="120" height="40" as="geometry" />
        </mxCell>
        <mxCell id="rC-MBk3FVQZ4qPWOqdKQ-15" value="" style="edgeStyle=orthogonalEdgeStyle;shape=connector;rounded=0;orthogonalLoop=1;jettySize=auto;html=1;shadow=0;strokeColor=default;strokeWidth=1;align=center;verticalAlign=middle;fontFamily=Computer Modern;fontSize=12;fontColor=default;labelBackgroundColor=none;endArrow=classic;endFill=1;endSize=3;" parent="1" source="rC-MBk3FVQZ4qPWOqdKQ-19" target="rC-MBk3FVQZ4qPWOqdKQ-21" edge="1">
          <mxGeometry relative="1" as="geometry" />
        </mxCell>
        <mxCell id="rC-MBk3FVQZ4qPWOqdKQ-16" value="&lt;div&gt;Sí&lt;/div&gt;" style="edgeLabel;html=1;align=center;verticalAlign=middle;resizable=0;points=[];fontFamily=Computer Modern;fontSize=12;fontColor=default;labelBackgroundColor=none;" parent="rC-MBk3FVQZ4qPWOqdKQ-15" vertex="1" connectable="0">
          <mxGeometry x="0.0391" y="1" relative="1" as="geometry">
            <mxPoint x="-10" y="-9" as="offset" />
          </mxGeometry>
        </mxCell>
        <mxCell id="rC-MBk3FVQZ4qPWOqdKQ-17" value="" style="edgeStyle=orthogonalEdgeStyle;shape=connector;rounded=0;orthogonalLoop=1;jettySize=auto;html=1;shadow=0;strokeColor=default;strokeWidth=1;align=center;verticalAlign=middle;fontFamily=Computer Modern;fontSize=12;fontColor=default;labelBackgroundColor=none;endArrow=classic;endFill=1;endSize=3;" parent="1" source="rC-MBk3FVQZ4qPWOqdKQ-19" target="rC-MBk3FVQZ4qPWOqdKQ-23" edge="1">
          <mxGeometry relative="1" as="geometry" />
        </mxCell>
        <mxCell id="rC-MBk3FVQZ4qPWOqdKQ-18" value="No" style="edgeLabel;html=1;align=center;verticalAlign=middle;resizable=0;points=[];fontFamily=Computer Modern;fontSize=12;fontColor=default;labelBackgroundColor=none;" parent="rC-MBk3FVQZ4qPWOqdKQ-17" vertex="1" connectable="0">
          <mxGeometry x="-0.1371" relative="1" as="geometry">
            <mxPoint x="-10" y="-7" as="offset" />
          </mxGeometry>
        </mxCell>
        <mxCell id="YS-Aq0A1xr1reavtCEc6-9" value="" style="edgeStyle=orthogonalEdgeStyle;rounded=0;orthogonalLoop=1;jettySize=auto;html=1;" edge="1" parent="1" source="rC-MBk3FVQZ4qPWOqdKQ-19" target="rC-MBk3FVQZ4qPWOqdKQ-23">
          <mxGeometry relative="1" as="geometry" />
        </mxCell>
        <mxCell id="rC-MBk3FVQZ4qPWOqdKQ-19" value="TTL == 1" style="rhombus;whiteSpace=wrap;html=1;shadow=0;fontFamily=Computer Modern;fontSize=12;align=center;strokeWidth=1;spacing=6;spacingTop=-4;fillColor=light-dark(#ffd9b3, #36210a);strokeColor=#000000;" parent="1" vertex="1">
          <mxGeometry x="359" y="170" width="109" height="80" as="geometry" />
        </mxCell>
        <mxCell id="rC-MBk3FVQZ4qPWOqdKQ-21" value="Descartar paquet" style="rounded=1;whiteSpace=wrap;html=1;fontSize=12;glass=0;strokeWidth=1;shadow=0;fontFamily=Computer Modern;strokeColor=light-dark(#000000,#EDEDED);fillColor=light-dark(#ccccff, #ededed);" parent="1" vertex="1">
          <mxGeometry x="505" y="190" width="120" height="40" as="geometry" />
        </mxCell>
        <mxCell id="rC-MBk3FVQZ4qPWOqdKQ-22" value="" style="edgeStyle=orthogonalEdgeStyle;shape=connector;rounded=0;orthogonalLoop=1;jettySize=auto;html=1;shadow=0;strokeColor=default;strokeWidth=1;align=center;verticalAlign=middle;fontFamily=Computer Modern;fontSize=12;fontColor=default;labelBackgroundColor=none;endArrow=classic;endFill=1;endSize=3;entryX=0;entryY=0.5;entryDx=0;entryDy=0;" parent="1" source="rC-MBk3FVQZ4qPWOqdKQ-23" edge="1" target="rC-MBk3FVQZ4qPWOqdKQ-27">
          <mxGeometry relative="1" as="geometry">
            <mxPoint x="445" y="730" as="targetPoint" />
          </mxGeometry>
        </mxCell>
        <mxCell id="rC-MBk3FVQZ4qPWOqdKQ-23" value="TTL = TTL - 1" style="rounded=1;whiteSpace=wrap;html=1;fontSize=12;glass=0;strokeWidth=1;shadow=0;fontFamily=Computer Modern;strokeColor=light-dark(#000000,#EDEDED);fillColor=light-dark(#ccccff, #ededed);" parent="1" vertex="1">
          <mxGeometry x="354" y="290" width="120" height="40" as="geometry" />
        </mxCell>
        <mxCell id="YS-Aq0A1xr1reavtCEc6-3" value="" style="edgeStyle=orthogonalEdgeStyle;rounded=0;orthogonalLoop=1;jettySize=auto;html=1;endSize=3;fontSize=12;fontFamily=Computer Modern;" edge="1" parent="1" source="rC-MBk3FVQZ4qPWOqdKQ-27" target="rC-MBk3FVQZ4qPWOqdKQ-32">
          <mxGeometry relative="1" as="geometry" />
        </mxCell>
        <mxCell id="rC-MBk3FVQZ4qPWOqdKQ-27" value="ObtenirRuta(dst)" style="rounded=1;whiteSpace=wrap;html=1;fontSize=12;glass=0;strokeWidth=1;shadow=0;fontFamily=Computer Modern;strokeColor=light-dark(#000000,#EDEDED);fillColor=light-dark(#ccccff, #ededed);" parent="1" vertex="1">
          <mxGeometry x="505" y="290" width="120" height="40" as="geometry" />
        </mxCell>
        <mxCell id="rC-MBk3FVQZ4qPWOqdKQ-28" value="" style="edgeStyle=orthogonalEdgeStyle;shape=connector;rounded=0;orthogonalLoop=1;jettySize=auto;html=1;shadow=0;strokeColor=default;strokeWidth=1;align=center;verticalAlign=middle;fontFamily=Computer Modern;fontSize=12;fontColor=default;labelBackgroundColor=none;endArrow=classic;endFill=1;endSize=3;exitX=1;exitY=0.5;exitDx=0;exitDy=0;" parent="1" source="rC-MBk3FVQZ4qPWOqdKQ-32" target="rC-MBk3FVQZ4qPWOqdKQ-34" edge="1">
          <mxGeometry relative="1" as="geometry">
            <Array as="points">
              <mxPoint x="830" y="310" />
              <mxPoint x="830" y="310" />
            </Array>
          </mxGeometry>
        </mxCell>
        <mxCell id="rC-MBk3FVQZ4qPWOqdKQ-29" value="&lt;div&gt;Sí&lt;/div&gt;" style="edgeLabel;html=1;align=center;verticalAlign=middle;resizable=0;points=[];fontFamily=Computer Modern;fontSize=12;fontColor=default;labelBackgroundColor=none;" parent="rC-MBk3FVQZ4qPWOqdKQ-28" vertex="1" connectable="0">
          <mxGeometry x="0.0391" y="1" relative="1" as="geometry">
            <mxPoint x="-10" y="-9" as="offset" />
          </mxGeometry>
        </mxCell>
        <mxCell id="rC-MBk3FVQZ4qPWOqdKQ-30" value="" style="edgeStyle=orthogonalEdgeStyle;shape=connector;rounded=0;orthogonalLoop=1;jettySize=auto;html=1;shadow=0;strokeColor=default;strokeWidth=1;align=center;verticalAlign=middle;fontFamily=Computer Modern;fontSize=12;fontColor=default;labelBackgroundColor=none;endArrow=classic;endFill=1;endSize=3;" parent="1" source="rC-MBk3FVQZ4qPWOqdKQ-32" target="rC-MBk3FVQZ4qPWOqdKQ-36" edge="1">
          <mxGeometry relative="1" as="geometry" />
        </mxCell>
        <mxCell id="YS-Aq0A1xr1reavtCEc6-5" value="No" style="edgeLabel;html=1;align=center;verticalAlign=middle;resizable=0;points=[];fontFamily=Computer Modern;fontSize=12;" vertex="1" connectable="0" parent="rC-MBk3FVQZ4qPWOqdKQ-30">
          <mxGeometry x="-0.4517" y="2" relative="1" as="geometry">
            <mxPoint x="-11" as="offset" />
          </mxGeometry>
        </mxCell>
        <mxCell id="rC-MBk3FVQZ4qPWOqdKQ-32" value="next == GW" style="rhombus;whiteSpace=wrap;html=1;shadow=0;fontFamily=Computer Modern;fontSize=12;align=center;strokeWidth=1;spacing=6;spacingTop=-4;fillColor=light-dark(#ffd9b3, #36210a);strokeColor=#000000;" parent="1" vertex="1">
          <mxGeometry x="665" y="270" width="109" height="80" as="geometry" />
        </mxCell>
        <mxCell id="8U7mtkoSM1OeHfx2B1FY-2" style="edgeStyle=orthogonalEdgeStyle;rounded=0;orthogonalLoop=1;jettySize=auto;html=1;entryX=0.5;entryY=0;entryDx=0;entryDy=0;exitX=0.5;exitY=1;exitDx=0;exitDy=0;endSize=3;fontSize=12;fontFamily=Computer Modern;" parent="1" source="rC-MBk3FVQZ4qPWOqdKQ-34" target="rC-MBk3FVQZ4qPWOqdKQ-38" edge="1">
          <mxGeometry relative="1" as="geometry" />
        </mxCell>
        <mxCell id="rC-MBk3FVQZ4qPWOqdKQ-34" value="Enviar per LoRaWAN" style="rounded=1;whiteSpace=wrap;html=1;fontSize=12;glass=0;strokeWidth=1;shadow=0;fontFamily=Computer Modern;strokeColor=light-dark(#000000,#EDEDED);fillColor=light-dark(#ccccff, #ededed);" parent="1" vertex="1">
          <mxGeometry x="814" y="290" width="120" height="40" as="geometry" />
        </mxCell>
        <mxCell id="rC-MBk3FVQZ4qPWOqdKQ-35" value="" style="edgeStyle=orthogonalEdgeStyle;shape=connector;rounded=0;orthogonalLoop=1;jettySize=auto;html=1;shadow=0;strokeColor=default;strokeWidth=1;align=center;verticalAlign=middle;fontFamily=Computer Modern;fontSize=12;fontColor=default;labelBackgroundColor=none;endArrow=classic;endFill=1;endSize=3;" parent="1" source="rC-MBk3FVQZ4qPWOqdKQ-36" target="rC-MBk3FVQZ4qPWOqdKQ-38" edge="1">
          <mxGeometry relative="1" as="geometry" />
        </mxCell>
        <mxCell id="rC-MBk3FVQZ4qPWOqdKQ-36" value="Enviar per capa d&#39;accés al medi" style="rounded=1;whiteSpace=wrap;html=1;fontSize=12;glass=0;strokeWidth=1;shadow=0;fontFamily=Computer Modern;strokeColor=light-dark(#000000,#EDEDED);fillColor=light-dark(#ccccff, #ededed);" parent="1" vertex="1">
          <mxGeometry x="659.5" y="390" width="120" height="40" as="geometry" />
        </mxCell>
        <mxCell id="rC-MBk3FVQZ4qPWOqdKQ-37" value="nextHop" style="edgeLabel;html=1;align=left;verticalAlign=middle;resizable=0;points=[];fontFamily=Computer Modern;fontSize=10;fontColor=default;labelBackgroundColor=none;fontStyle=2" parent="1" vertex="1" connectable="0">
          <mxGeometry x="625" y="329.9979310344829" as="geometry" />
        </mxCell>
        <mxCell id="rC-MBk3FVQZ4qPWOqdKQ-38" value="Fi" style="rounded=1;fontSize=12;glass=0;strokeWidth=1;shadow=0;fontFamily=Computer Modern;fillColor=light-dark(#d9d9d9, #CCCCCC);fontStyle=0;" parent="1" vertex="1">
          <mxGeometry x="814" y="390" width="120" height="40" as="geometry" />
        </mxCell>
        <mxCell id="rC-MBk3FVQZ4qPWOqdKQ-4" value="onMacReceive" style="rounded=1;fontSize=12;glass=0;strokeWidth=1;shadow=0;fontFamily=Computer Modern;fillColor=light-dark(#d9d9d9, #CCCCCC);fontStyle=0;" parent="1" vertex="1">
          <mxGeometry x="40" y="40" width="120" height="40" as="geometry" />
        </mxCell>
        <mxCell id="rC-MBk3FVQZ4qPWOqdKQ-5" value="onWANReceive" style="rounded=1;fontSize=12;glass=0;strokeWidth=1;shadow=0;fontFamily=Computer Modern;fillColor=light-dark(#d9d9d9, #CCCCCC);fontStyle=0;" parent="1" vertex="1">
          <mxGeometry x="40" y="120" width="120" height="40" as="geometry" />
        </mxCell>
        <mxCell id="YS-Aq0A1xr1reavtCEc6-6" value="pkt(src, dst, ttl--, longitud, data)" style="edgeLabel;html=1;align=left;verticalAlign=middle;resizable=0;points=[];fontFamily=Computer Modern;fontSize=10;fontColor=default;labelBackgroundColor=none;fontStyle=2" vertex="1" connectable="0" parent="1">
          <mxGeometry x="414" y="339.9979310344829" as="geometry" />
        </mxCell>
        <mxCell id="YS-Aq0A1xr1reavtCEc6-7" value="No" style="edgeLabel;html=1;align=center;verticalAlign=middle;resizable=0;points=[];fontFamily=Computer Modern;fontSize=12;fontColor=default;labelBackgroundColor=none;" vertex="1" connectable="0" parent="1">
          <mxGeometry x="410.00275862068975" y="270.22872508699777" as="geometry">
            <mxPoint x="-7" y="-121" as="offset" />
          </mxGeometry>
        </mxCell>
      </root>
    </mxGraphModel>
  </diagram>
</mxfile>
